<svg width="22" height="22" viewBox="0 0 22 22" fill="none" xmlns="http://www.w3.org/2000/svg">
<path id="Arrow 6" d="M21.0607 3.06066C21.6464 2.47487 21.6464 1.52513 21.0607 0.93934C20.4749 0.353553 19.5251 0.353553 18.9393 0.93934L21.0607 3.06066ZM0.5 20C0.5 20.8284 1.17157 21.5 2 21.5L15.5 21.5C16.3284 21.5 17 20.8284 17 20C17 19.1716 16.3284 18.5 15.5 18.5H3.5V6.5C3.5 5.67157 2.82843 5 2 5C1.17157 5 0.5 5.67157 0.5 6.5L0.5 20ZM18.9393 0.93934L0.93934 18.9393L3.06066 21.0607L21.0607 3.06066L18.9393 0.93934Z" fill="#252525"/>
</svg>
