<svg width="40" height="40" viewBox="0 0 40 40" fill="none" xmlns="http://www.w3.org/2000/svg">
<path d="M8.9248 28.7139L14.3057 5.98438H17.3115L17.998 9.76953L12.2646 33H9.03613L8.9248 28.7139ZM6.16016 5.98438L10.6133 28.7139L10.2422 33H6.64258L0.649414 5.98438H6.16016ZM22.7295 28.6211L27.127 5.98438H32.6377L26.6631 33H23.0635L22.7295 28.6211ZM19 5.98438L24.418 28.8066L24.2695 33H21.041L15.2705 9.75098L16.0127 5.98438H19ZM33.0273 30.4209C33.0273 29.6292 33.2995 28.9674 33.8438 28.4355C34.4004 27.9036 35.1364 27.6377 36.0518 27.6377C36.9671 27.6377 37.6969 27.9036 38.2412 28.4355C38.7979 28.9674 39.0762 29.6292 39.0762 30.4209C39.0762 31.2126 38.7979 31.8743 38.2412 32.4062C37.6969 32.9382 36.9671 33.2041 36.0518 33.2041C35.1364 33.2041 34.4004 32.9382 33.8438 32.4062C33.2995 31.8743 33.0273 31.2126 33.0273 30.4209Z" fill="white"/>
</svg>
