<svg width="40" height="40" viewBox="0 0 40 40" fill="none" xmlns="http://www.w3.org/2000/svg">
<g clip-path="url(#clip0_479_284)">
<path d="M10.1786 12.8571C11.6579 12.8571 12.8571 11.6579 12.8571 10.1786C12.8571 8.69923 11.6579 7.5 10.1786 7.5C8.69923 7.5 7.5 8.69923 7.5 10.1786C7.5 11.6579 8.69923 12.8571 10.1786 12.8571Z" fill="white"/>
<path d="M7.5 16.4285C7.5 15.4423 8.2995 14.6428 9.28571 14.6428H11.0714C12.0576 14.6428 12.8571 15.4423 12.8571 16.4285V30.7142C12.8571 31.7005 12.0576 32.5 11.0714 32.5H9.28571C8.2995 32.5 7.5 31.7005 7.5 30.7142V16.4285Z" fill="white"/>
<path d="M18.2142 32.5H19.9999C20.9861 32.5 21.7856 31.7005 21.7856 30.7142V22.6785C21.7856 20 27.1428 18.2143 27.1428 21.7857V30.715C27.1428 31.7012 27.9422 32.5 28.9285 32.5H30.7142C31.7004 32.5 32.4999 31.7005 32.4999 30.7142V20C32.4999 16.4285 29.8213 14.6428 26.2499 14.6428C22.6785 14.6428 21.7856 17.3214 21.7856 17.3214V16.4285C21.7856 15.4423 20.9861 14.6428 19.9999 14.6428H18.2142C17.2279 14.6428 16.4285 15.4423 16.4285 16.4285V30.7142C16.4285 31.7005 17.2279 32.5 18.2142 32.5Z" fill="white"/>
<path fill-rule="evenodd" clip-rule="evenodd" d="M34.2857 0.357178C37.2445 0.357178 39.6429 2.75566 39.6429 5.71432V34.2857C39.6429 37.2445 37.2445 39.6429 34.2857 39.6429H5.71432C2.75566 39.6429 0.357178 37.2445 0.357178 34.2857V5.71432C0.357178 2.75566 2.75566 0.357178 5.71432 0.357178H34.2857ZM34.2857 3.92861C35.272 3.92861 36.0715 4.72811 36.0715 5.71432V34.2857C36.0715 35.272 35.272 36.0715 34.2857 36.0715H5.71432C4.72811 36.0715 3.92861 35.272 3.92861 34.2857V5.71432C3.92861 4.72811 4.72811 3.92861 5.71432 3.92861H34.2857Z" fill="white"/>
</g>
<defs>
<clipPath id="clip0_479_284">
<rect width="40" height="40" fill="white"/>
</clipPath>
</defs>
</svg>
