<svg width="24" height="30" viewBox="0 0 24 30" fill="none" xmlns="http://www.w3.org/2000/svg">
<path d="M13.499 2C13.499 1.17157 12.8275 0.5 11.999 0.5C11.1706 0.5 10.499 1.17157 10.499 2L13.499 2ZM10.9384 29.0607C11.5242 29.6464 12.4739 29.6464 13.0597 29.0607L22.6056 19.5147C23.1914 18.9289 23.1914 17.9792 22.6056 17.3934C22.0198 16.8076 21.0701 16.8076 20.4843 17.3934L11.999 25.8787L3.51374 17.3934C2.92796 16.8076 1.97821 16.8076 1.39242 17.3934C0.806636 17.9792 0.806636 18.9289 1.39242 19.5147L10.9384 29.0607ZM10.499 2L10.499 28L13.499 28L13.499 2L10.499 2Z" fill="white"/>
</svg>
