<svg width="34" height="34" viewBox="0 0 34 34" fill="none" xmlns="http://www.w3.org/2000/svg">
<path d="M4.76777 1.23223C3.79146 0.255922 2.20854 0.255922 1.23223 1.23223C0.255922 2.20854 0.255922 3.79146 1.23223 4.76777L4.76777 1.23223ZM31 33.5C32.3807 33.5 33.5 32.3807 33.5 31L33.5 8.5C33.5 7.11929 32.3807 6 31 6C29.6193 6 28.5 7.11929 28.5 8.5V28.5H8.5C7.11929 28.5 6 29.6193 6 31C6 32.3807 7.11929 33.5 8.5 33.5L31 33.5ZM1.23223 4.76777L29.2322 32.7678L32.7678 29.2322L4.76777 1.23223L1.23223 4.76777Z" fill="white"/>
</svg>
