<svg width="41" height="40" viewBox="0 0 41 40" fill="none" xmlns="http://www.w3.org/2000/svg">
<path fill-rule="evenodd" clip-rule="evenodd" d="M26.896 21.8571C28.29 25.7974 29.233 29.8457 29.725 33.9997C34.0115 31.3036 36.9205 26.8699 37.474 21.8571C33.3186 21.5795 30.5286 21.6035 26.896 21.8571ZM24.477 15.8259C24.887 16.6786 25.3523 17.7571 25.871 19.0612C29.604 18.7177 33.7697 18.7213 37.515 18.9011C37.2957 15.2803 35.957 12.0579 33.497 9.23602C31.7196 11.8183 28.7144 14.0145 24.477 15.8259ZM16.318 3.92351C18.7227 6.34599 20.951 9.36916 23.001 12.9899C26.7177 11.4721 29.52 9.54153 31.406 7.19891C26.8325 3.51224 21.197 2.61939 16.318 3.92351ZM10.045 33.1608C14.965 36.8934 21.0658 37.5984 26.527 35.5573C25.9797 31.0039 24.9137 26.5965 23.329 22.3366C17.999 23.465 12.3717 28.6793 10.045 33.1608ZM3.936 15.9059C6.3345 16.1176 12.8904 16.1493 19.598 14.1882C17.5213 10.5934 15.2377 7.59836 12.751 5.20183C8.34965 7.3727 5.1742 11.3965 3.936 15.9059ZM7.708 31.0036C10.2746 26.1067 16.6563 20.795 22.263 19.5808C21.853 18.6481 21.4573 17.8091 21.074 17.0641C15.3914 18.8356 8.9134 19.501 3.444 19.2214C3.444 23.4832 4.15945 27.0853 7.708 31.0036ZM0 20.0202C0 12.5251 4.11639 6.18427 10.209 2.72527C23.7861 -4.98156 41 4.56059 41 20.0202C41 27.5154 36.8836 33.8562 30.791 37.3151C24.4934 40.89 16.525 40.8999 10.209 37.3151C4.11024 33.8542 0 27.5094 0 20.0202Z" fill="white"/>
</svg>
