<svg width="233" height="227" viewBox="0 0 233 227" fill="none" xmlns="http://www.w3.org/2000/svg">
<path fill-rule="evenodd" clip-rule="evenodd" d="M116.489 0C52.1655 0 0 52.1015 0 116.376C0 167.784 33.3777 211.406 79.6714 226.802C85.5002 227.866 87.6242 224.271 87.6242 221.186C87.6242 218.421 87.5242 211.106 87.4669 201.398C55.0621 208.427 48.2248 185.795 48.2248 185.795C42.9252 172.35 35.2872 168.77 35.2872 168.77C24.7096 161.555 36.0882 161.698 36.0882 161.698C47.7814 162.519 53.9319 173.692 53.9319 173.692C64.3235 191.474 81.202 186.338 87.8388 183.359C88.8973 175.843 91.9082 170.714 95.2338 167.805C69.3656 164.862 42.1672 154.882 42.1672 110.29C42.1672 97.5804 46.7086 87.2001 54.1609 79.0631C52.9595 76.1197 48.9615 64.2891 55.3052 48.265C55.3052 48.265 65.0816 45.1359 87.3381 60.1882C96.6283 57.6093 106.598 56.3234 116.503 56.2734C126.401 56.3234 136.364 57.6093 145.669 60.1882C167.911 45.1359 177.672 48.265 177.672 48.265C184.032 64.2891 180.034 76.1197 178.839 79.0631C186.305 87.2001 190.811 97.5804 190.811 110.29C190.811 154.997 163.57 164.834 137.623 167.713C141.799 171.307 145.525 178.408 145.525 189.267C145.525 204.819 145.383 217.371 145.383 221.186C145.383 224.301 147.485 227.924 153.393 226.786C199.651 211.364 233 167.777 233 116.376C233 52.1015 180.834 0 116.489 0Z" fill="white"/>
</svg>
