<svg width="40" height="40" viewBox="0 0 40 40" fill="none" xmlns="http://www.w3.org/2000/svg">
<g clip-path="url(#clip0_479_295)">
<path fill-rule="evenodd" clip-rule="evenodd" d="M20.0001 30.7018C25.9105 30.7018 30.7018 25.9105 30.7018 20.0001C30.7018 14.0897 25.9105 9.29834 20.0001 9.29834C14.0897 9.29834 9.29834 14.0897 9.29834 20.0001C9.29834 25.9105 14.0897 30.7018 20.0001 30.7018ZM20.0001 27.1346C23.9403 27.1346 27.1346 23.9403 27.1346 20.0001C27.1346 16.0598 23.9403 12.8656 20.0001 12.8656C16.0598 12.8656 12.8656 16.0598 12.8656 20.0001C12.8656 23.9403 16.0598 27.1346 20.0001 27.1346Z" fill="white"/>
<path d="M30.7018 7.51465C29.7167 7.51465 28.9182 8.31321 28.9182 9.29827C28.9182 10.2833 29.7167 11.0819 30.7018 11.0819C31.6869 11.0819 32.4855 10.2833 32.4855 9.29827C32.4855 8.31321 31.6869 7.51465 30.7018 7.51465Z" fill="white"/>
<path fill-rule="evenodd" clip-rule="evenodd" d="M1.54655 6.22339C0.380127 8.51262 0.380127 11.5094 0.380127 17.5029V22.4971C0.380127 28.4906 0.380127 31.4875 1.54655 33.7766C2.57256 35.7903 4.20971 37.4275 6.22339 38.4534C8.51262 39.6199 11.5094 39.6199 17.5029 39.6199H22.4971C28.4906 39.6199 31.4875 39.6199 33.7766 38.4534C35.7903 37.4275 37.4275 35.7903 38.4534 33.7766C39.6199 31.4875 39.6199 28.4906 39.6199 22.4971V17.5029C39.6199 11.5094 39.6199 8.51262 38.4534 6.22339C37.4275 4.20971 35.7903 2.57256 33.7766 1.54655C31.4875 0.380127 28.4906 0.380127 22.4971 0.380127H17.5029C11.5094 0.380127 8.51262 0.380127 6.22339 1.54655C4.20971 2.57256 2.57256 4.20971 1.54655 6.22339ZM22.4971 3.94738H17.5029C14.4473 3.94738 12.3701 3.95016 10.7645 4.08133C9.20058 4.20911 8.40081 4.44071 7.84289 4.72499C6.50044 5.40901 5.40901 6.50044 4.72499 7.84289C4.44071 8.40081 4.20911 9.20058 4.08133 10.7645C3.95016 12.3701 3.94738 14.4473 3.94738 17.5029V22.4971C3.94738 25.5528 3.95016 27.6298 4.08133 29.2354C4.20911 30.7995 4.44071 31.5993 4.72499 32.1572C5.40901 33.4996 6.50044 34.591 7.84289 35.275C8.40081 35.5593 9.20058 35.791 10.7645 35.9187C12.3701 36.0498 14.4473 36.0526 17.5029 36.0526H22.4971C25.5528 36.0526 27.6298 36.0498 29.2354 35.9187C30.7995 35.791 31.5993 35.5593 32.1572 35.275C33.4996 34.591 34.591 33.4996 35.275 32.1572C35.5593 31.5993 35.791 30.7995 35.9187 29.2354C36.0498 27.6298 36.0526 25.5528 36.0526 22.4971V17.5029C36.0526 14.4473 36.0498 12.3701 35.9187 10.7645C35.791 9.20058 35.5593 8.40081 35.275 7.84289C34.591 6.50044 33.4996 5.40901 32.1572 4.72499C31.5993 4.44071 30.7995 4.20911 29.2354 4.08133C27.6298 3.95016 25.5528 3.94738 22.4971 3.94738Z" fill="white"/>
</g>
<defs>
<clipPath id="clip0_479_295">
<rect width="40" height="40" fill="white"/>
</clipPath>
</defs>
</svg>
