<svg width="43" height="43" viewBox="0 0 43 43" fill="none" xmlns="http://www.w3.org/2000/svg">
<path d="M36.7025 6.29748C28.3058 -2.09919 14.6923 -2.09919 6.2974 6.29765C-2.09919 14.6942 -2.09919 28.3077 6.29773 36.7026C14.6923 45.0992 28.3058 45.0992 36.7025 36.7024C45.0992 28.3077 45.0992 14.6942 36.7025 6.29748ZM34.1689 34.1685C27.1715 41.1659 15.827 41.1659 8.83154 34.1689C1.83413 27.173 1.83413 15.8286 8.83137 8.83137C15.827 1.83405 27.1715 1.83405 34.1687 8.83137C41.1659 15.8287 41.1659 27.173 34.1689 34.1685Z" fill="#9CFF5F"/>
<path d="M30.9827 13.0667L19.708 24.3415L13.8083 18.4417C13.1086 17.7421 11.9742 17.7421 11.2745 18.4417C10.5748 19.1414 10.5748 20.2759 11.2745 20.9756L18.4411 28.1422C19.1408 28.8419 20.2752 28.8419 20.9749 28.1422L33.5166 15.6006C34.2162 14.9009 34.2162 13.7664 33.5166 13.0667C32.8169 12.3671 31.6824 12.3671 30.9827 13.0667Z" fill="#9CFF5F"/>
</svg>
