<svg width="58" height="29" viewBox="0 0 58 29" fill="none" xmlns="http://www.w3.org/2000/svg">
<path d="M12.6073 5.54249C13.2237 3.73759 15.7763 3.73759 16.3927 5.54249L17.8738 9.87981C18.0739 10.4658 18.5342 10.9261 19.1202 11.1262L23.4575 12.6073C25.2624 13.2237 25.2624 15.7763 23.4575 16.3927L19.1202 17.8738C18.5342 18.0739 18.0739 18.5342 17.8738 19.1202L16.3927 23.4575C15.7763 25.2624 13.2237 25.2624 12.6073 23.4575L11.1262 19.1202C10.9261 18.5342 10.4658 18.0739 9.87982 17.8738L5.54249 16.3927C3.73759 15.7763 3.73759 13.2237 5.54249 12.6073L9.87981 11.1262C10.4658 10.9261 10.9261 10.4658 11.1262 9.87982L12.6073 5.54249Z" fill="#7E7E7E" fill-opacity="0.1"/>
<path d="M41.6073 5.54249C42.2237 3.73759 44.7763 3.73759 45.3927 5.54249L46.8738 9.87981C47.0739 10.4658 47.5342 10.9261 48.1202 11.1262L52.4575 12.6073C54.2624 13.2237 54.2624 15.7763 52.4575 16.3927L48.1202 17.8738C47.5342 18.0739 47.0739 18.5342 46.8738 19.1202L45.3927 23.4575C44.7763 25.2624 42.2237 25.2624 41.6073 23.4575L40.1262 19.1202C39.9261 18.5342 39.4658 18.0739 38.8798 17.8738L34.5425 16.3927C32.7376 15.7763 32.7376 13.2237 34.5425 12.6073L38.8798 11.1262C39.4658 10.9261 39.9261 10.4658 40.1262 9.87982L41.6073 5.54249Z" fill="#7E7E7E" fill-opacity="0.1"/>
</svg>
