<svg width="206" height="209" viewBox="0 0 206 209" fill="none" xmlns="http://www.w3.org/2000/svg">
<g opacity="0.6" filter="url(#filter0_f_153_42)">
<path d="M50.5133 67.3816C56.4904 61.816 63.5051 57.4821 71.157 54.6274C78.809 51.7728 86.9482 50.4532 95.1101 50.7441C103.272 51.035 111.297 52.9307 118.726 56.3229C126.155 59.715 132.844 64.5373 138.409 70.5144C143.975 76.4914 148.309 83.5061 151.164 91.1581C154.018 98.81 155.338 106.949 155.047 115.111C154.756 123.273 152.86 131.298 149.468 138.727C146.076 146.156 141.254 152.845 135.277 158.41L108.31 129.45C110.483 127.426 112.237 124.993 113.471 122.291C114.705 119.589 115.394 116.67 115.5 113.702C115.606 110.733 115.126 107.773 114.088 104.99C113.05 102.207 111.473 99.6553 109.449 97.4814C107.425 95.3074 104.992 93.5535 102.29 92.3198C99.5879 91.086 96.6692 90.3965 93.7006 90.2907C90.7321 90.1849 87.7717 90.6649 84.9887 91.7031C82.2056 92.7414 79.6542 94.3177 77.4803 96.3419L50.5133 67.3816Z" fill="#FFBA68"/>
</g>
<defs>
<filter id="filter0_f_153_42" x="0.513306" y="0.704651" width="204.573" height="207.706" filterUnits="userSpaceOnUse" color-interpolation-filters="sRGB">
<feFlood flood-opacity="0" result="BackgroundImageFix"/>
<feBlend mode="normal" in="SourceGraphic" in2="BackgroundImageFix" result="shape"/>
<feGaussianBlur stdDeviation="25" result="effect1_foregroundBlur_153_42"/>
</filter>
</defs>
</svg>
